<svg width="600" height="600" viewBox="0 0 600 600" fill="none" xmlns="http://www.w3.org/2000/svg">
<path d="M0 0H600V600H0V0Z" fill="white"/>
<path d="M507.732 371.074H492.159V341.596H507.573C511.625 341.596 514.896 342.206 517.386 343.424C519.902 344.616 521.743 346.337 522.908 348.588C524.1 350.84 524.696 353.501 524.696 356.573C524.696 359.619 524.113 362.228 522.948 364.4C521.782 366.571 519.942 368.227 517.426 369.365C514.936 370.504 511.705 371.074 507.732 371.074Z" fill="black"/>
<path d="M265.251 373.418V341.596H280.665C284.743 341.596 288.027 342.272 290.517 343.623C293.033 344.973 294.874 346.84 296.039 349.224C297.204 351.608 297.787 354.336 297.787 357.408C297.787 360.48 297.204 363.221 296.039 365.631C294.874 368.041 293.046 369.948 290.557 371.352C288.067 372.729 284.823 373.418 280.824 373.418H265.251Z" fill="black"/>
<path d="M205.195 345.847L217.19 380.568H192.543L204.559 345.847H205.195Z" fill="black"/>
<path fill-rule="evenodd" clip-rule="evenodd" d="M600 0H0V600H600V412.429H551.987V331.069H600V0ZM492.159 412.429H479.884V331.069H508.884C515.188 331.069 520.418 332.155 524.576 334.327C528.761 336.498 531.886 339.504 533.952 343.344C536.018 347.158 537.051 351.568 537.051 356.573C537.051 361.553 536.004 365.936 533.912 369.723C531.846 373.484 528.721 376.41 524.537 378.503C523.775 378.886 522.977 379.234 522.143 379.547L540.149 412.429H526.165L509.635 381.635C509.374 381.639 509.11 381.641 508.845 381.641H492.159V412.429ZM462.037 331.069H449.722V383.588C449.722 387.269 448.914 390.54 447.298 393.4C445.709 396.26 443.405 398.512 440.386 400.154C437.393 401.769 433.831 402.577 429.699 402.577C425.594 402.577 422.045 401.769 419.053 400.154C416.06 398.512 413.742 396.26 412.1 393.4C410.485 390.54 409.677 387.269 409.677 383.588V331.069H397.401V384.581C397.401 390.275 398.739 395.32 401.414 399.717C404.089 404.087 407.85 407.53 412.696 410.046C417.543 412.535 423.211 413.78 429.699 413.78C436.214 413.78 441.895 412.535 446.742 410.046C451.589 407.53 455.349 404.087 458.024 399.717C460.699 395.32 462.037 390.275 462.037 384.581V331.069ZM320.52 341.636V331.069H383.487V341.636H358.102V412.429H345.866V341.636H320.52ZM252.975 331.069V412.429H265.251V383.826H281.936C288.239 383.826 293.47 382.674 297.628 380.37C301.812 378.039 304.938 374.887 307.003 370.915C309.096 366.916 310.142 362.413 310.142 357.408C310.142 352.429 309.109 347.953 307.043 343.98C304.977 339.981 301.865 336.829 297.707 334.525C293.549 332.221 288.305 331.069 281.976 331.069H252.975ZM181.518 412.429H168.487L197.766 331.069H211.948L241.227 412.429H228.197L220.758 390.897H188.969L181.518 412.429ZM148.106 357.527H160.501C159.812 353.157 158.488 349.277 156.528 345.887C154.568 342.47 152.092 339.584 149.099 337.227C146.107 334.843 142.73 333.042 138.969 331.824C135.235 330.579 131.209 329.957 126.892 329.957C119.874 329.957 113.61 331.638 108.101 335.002C102.593 338.339 98.2492 343.133 95.0711 349.383C91.893 355.607 90.3039 363.062 90.3039 371.749C90.3039 380.409 91.8797 387.865 95.0314 394.115C98.2095 400.365 102.553 405.172 108.062 408.536C113.57 411.873 119.847 413.542 126.892 413.542C131.368 413.542 135.5 412.879 139.287 411.555C143.074 410.231 146.438 408.364 149.377 405.954C152.344 403.517 154.767 400.63 156.647 397.293C158.554 393.93 159.839 390.248 160.501 386.249L148.106 386.21C147.603 388.805 146.689 391.109 145.365 393.122C144.067 395.108 142.478 396.79 140.598 398.167C138.717 399.544 136.612 400.591 134.281 401.306C131.977 401.994 129.541 402.339 126.972 402.339C122.337 402.339 118.166 401.173 114.458 398.843C110.75 396.512 107.823 393.069 105.678 388.514C103.559 383.958 102.5 378.37 102.5 371.749C102.5 365.181 103.559 359.619 105.678 355.064C107.823 350.509 110.737 347.052 114.418 344.695C118.126 342.338 122.324 341.159 127.011 341.159C129.607 341.159 132.057 341.517 134.361 342.232C136.691 342.947 138.797 344.007 140.677 345.41C142.558 346.814 144.147 348.522 145.445 350.535C146.742 352.548 147.63 354.878 148.106 357.527Z" fill="black"/>
<path d="M600 341.636H564.263V366.426H600V341.636Z" fill="black"/>
<path d="M600 376.953H564.263V401.862H600V376.953Z" fill="black"/>
</svg>
