<svg width="600" height="600" viewBox="0 0 600 600" fill="none" xmlns="http://www.w3.org/2000/svg">
<rect width="600" height="600" fill="black"/>
<path d="M515.85 454V360.909H574.214V373H529.896V401.364H571.168V413.409H529.896V441.909H574.759V454H515.85Z" fill="white"/>
<path d="M439.75 454V360.909H472.932C480.144 360.909 486.129 362.151 490.886 364.636C495.674 367.121 499.25 370.561 501.614 374.955C503.977 379.318 505.159 384.364 505.159 390.091C505.159 395.788 503.962 400.803 501.568 405.136C499.205 409.439 495.629 412.788 490.841 415.182C486.083 417.576 480.099 418.773 472.886 418.773H447.75V406.682H471.614C476.159 406.682 479.856 406.03 482.705 404.727C485.583 403.424 487.689 401.53 489.023 399.045C490.356 396.561 491.023 393.576 491.023 390.091C491.023 386.576 490.341 383.53 488.977 380.955C487.644 378.379 485.538 376.409 482.659 375.045C479.811 373.651 476.068 372.955 471.432 372.955H453.795V454H439.75ZM485.705 412L508.705 454H492.705L470.159 412H485.705Z" fill="white"/>
<path d="M411.639 360.909H425.73V422.136C425.73 428.651 424.2 434.424 421.139 439.455C418.078 444.455 413.775 448.394 408.23 451.273C402.684 454.121 396.184 455.545 388.73 455.545C381.306 455.545 374.821 454.121 369.275 451.273C363.73 448.394 359.427 444.455 356.366 439.455C353.306 434.424 351.775 428.651 351.775 422.136V360.909H365.821V421C365.821 425.212 366.745 428.955 368.594 432.227C370.472 435.5 373.124 438.076 376.548 439.955C379.972 441.803 384.033 442.727 388.73 442.727C393.457 442.727 397.533 441.803 400.957 439.955C404.412 438.076 407.048 435.5 408.866 432.227C410.715 428.955 411.639 425.212 411.639 421V360.909Z" fill="white"/>
<path d="M270.209 373V360.909H342.255V373H313.209V454H299.209V373H270.209Z" fill="white"/>
<path d="M199.325 454V360.909H232.507C239.749 360.909 245.749 362.227 250.507 364.864C255.265 367.5 258.825 371.106 261.189 375.682C263.552 380.227 264.734 385.348 264.734 391.045C264.734 396.773 263.537 401.924 261.143 406.5C258.78 411.045 255.204 414.651 250.416 417.318C245.659 419.955 239.674 421.273 232.462 421.273H209.643V409.364H231.189C235.765 409.364 239.477 408.576 242.325 407C245.174 405.394 247.265 403.212 248.598 400.455C249.931 397.697 250.598 394.561 250.598 391.045C250.598 387.53 249.931 384.409 248.598 381.682C247.265 378.955 245.159 376.818 242.28 375.273C239.431 373.727 235.674 372.955 231.007 372.955H213.371V454H199.325Z" fill="white"/>
<path d="M123.964 454H109.055L142.555 360.909H158.782L192.282 454H177.373L151.055 377.818H150.327L123.964 454ZM126.464 417.545H174.827V429.364H126.464V417.545Z" fill="white"/>
<path d="M106.318 391.182H92.1364C91.5909 388.152 90.5758 385.485 89.0909 383.182C87.6061 380.879 85.7879 378.924 83.6364 377.318C81.4849 375.712 79.0758 374.5 76.4091 373.682C73.7727 372.864 70.9697 372.455 68 372.455C62.6364 372.455 57.8333 373.803 53.5909 376.5C49.3788 379.197 46.0455 383.152 43.5909 388.364C41.1667 393.576 39.9545 399.939 39.9545 407.455C39.9545 415.03 41.1667 421.424 43.5909 426.636C46.0455 431.848 49.3939 435.788 53.6364 438.455C57.8788 441.121 62.6515 442.455 67.9545 442.455C70.8939 442.455 73.6818 442.061 76.3182 441.273C78.9849 440.455 81.3939 439.258 83.5455 437.682C85.697 436.106 87.5152 434.182 89 431.909C90.5152 429.606 91.5606 426.97 92.1364 424L106.318 424.045C105.561 428.621 104.091 432.833 101.909 436.682C99.7576 440.5 96.9849 443.803 93.5909 446.591C90.2273 449.348 86.3788 451.485 82.0455 453C77.7121 454.515 72.9849 455.273 67.8636 455.273C59.803 455.273 52.6212 453.364 46.3182 449.545C40.0152 445.697 35.0455 440.197 31.4091 433.045C27.803 425.894 26 417.364 26 407.455C26 397.515 27.8182 388.985 31.4545 381.864C35.0909 374.712 40.0606 369.227 46.3636 365.409C52.6667 361.561 59.8333 359.636 67.8636 359.636C72.803 359.636 77.4091 360.348 81.6818 361.773C85.9849 363.167 89.8485 365.227 93.2727 367.955C96.697 370.652 99.5303 373.955 101.773 377.864C104.015 381.742 105.53 386.182 106.318 391.182Z" fill="white"/>
</svg>
